o rotating_lights_cylinder
v 0.035990 4.262615 1.038670
v 0.035990 4.262615 -0.961330
v 0.231080 4.281830 1.038670
v 0.231080 4.281830 -0.961330
v 0.418673 4.338736 1.038670
v 0.418673 4.338736 -0.961330
v 0.591560 4.431146 1.038670
v 0.591560 4.431146 -0.961330
v 0.743097 4.555509 1.038670
v 0.743097 4.555509 -0.961330
v 0.867460 4.707045 1.038670
v 0.867460 4.707045 -0.961330
v 0.959870 4.879932 1.038670
v 0.959870 4.879932 -0.961330
v 1.016775 5.067525 1.038670
v 1.016775 5.067525 -0.961330
v 1.035990 5.262615 1.038670
v 1.035990 5.262615 -0.961330
v 1.016775 5.457705 1.038670
v 1.016775 5.457705 -0.961330
v 0.959870 5.645298 1.038670
v 0.959870 5.645298 -0.961330
v 0.867460 5.818185 1.038670
v 0.867460 5.818185 -0.961330
v 0.743097 5.969722 1.038669
v 0.743097 5.969722 -0.961330
v 0.591560 6.094085 1.038669
v 0.591560 6.094085 -0.961330
v 0.418673 6.186495 1.038669
v 0.418673 6.186495 -0.961330
v 0.231080 6.243401 1.038669
v 0.231080 6.243401 -0.961330
v 0.035990 6.262615 1.038669
v 0.035990 6.262615 -0.961330
v -0.159101 6.243401 1.038669
v -0.159101 6.243401 -0.961330
v -0.346694 6.186495 1.038669
v -0.346694 6.186494 -0.961330
v -0.519581 6.094085 1.038669
v -0.519581 6.094084 -0.961330
v -0.671117 5.969722 1.038669
v -0.671117 5.969721 -0.961330
v -0.795480 5.818185 1.038670
v -0.795480 5.818185 -0.961330
v -0.887890 5.645298 1.038670
v -0.887890 5.645298 -0.961330
v -0.944795 5.457705 1.038670
v -0.944795 5.457705 -0.961330
v -0.964010 5.262614 1.038670
v -0.964010 5.262614 -0.961330
v -0.944795 5.067524 1.038670
v -0.944795 5.067524 -0.961330
v -0.887889 4.879931 1.038670
v -0.887889 4.879930 -0.961330
v -0.795479 4.707044 1.038670
v -0.795479 4.707044 -0.961330
v -0.671116 4.555508 1.038670
v -0.671116 4.555508 -0.961330
v -0.519579 4.431145 1.038670
v -0.519579 4.431145 -0.961330
v -0.346692 4.338735 1.038670
v -0.346692 4.338735 -0.961330
v -0.159099 4.281830 1.038670
v -0.159099 4.281830 -0.961330
v 0.035990 4.262615 1.038670
v 0.231080 4.281830 1.038670
v 0.231080 4.281830 -0.961330
v 0.035990 4.262615 -0.961330
v 0.418673 4.338736 1.038670
v 0.418673 4.338736 -0.961330
v 0.591560 4.431146 1.038670
v 0.591560 4.431146 -0.961330
v 0.743097 4.555509 1.038670
v 0.743097 4.555509 -0.961330
v 0.867460 4.707045 1.038670
v 0.867460 4.707045 -0.961330
v 0.959870 4.879932 1.038670
v 0.959870 4.879932 -0.961330
v 1.016775 5.067525 1.038670
v 1.016775 5.067525 -0.961330
v 1.035990 5.262615 1.038670
v 1.035990 5.262615 -0.961330
v 1.016775 5.457705 1.038670
v 1.016775 5.457705 -0.961330
v 0.959870 5.645298 1.038670
v 0.959870 5.645298 -0.961330
v 0.867460 5.818185 1.038670
v 0.867460 5.818185 -0.961330
v 0.743097 5.969722 1.038669
v 0.743097 5.969722 -0.961330
v 0.591560 6.094085 1.038669
v 0.591560 6.094085 -0.961330
v 0.418673 6.186495 1.038669
v 0.418673 6.186495 -0.961330
v 0.231080 6.243401 1.038669
v 0.231080 6.243401 -0.961330
v 0.035990 6.262615 1.038669
v 0.035990 6.262615 -0.961330
v -0.159101 6.243401 1.038669
v -0.159101 6.243401 -0.961330
v -0.346694 6.186495 1.038669
v -0.346694 6.186494 -0.961330
v -0.519581 6.094085 1.038669
v -0.519581 6.094084 -0.961330
v -0.671117 5.969722 1.038669
v -0.671117 5.969721 -0.961330
v -0.795480 5.818185 1.038670
v -0.795480 5.818185 -0.961330
v -0.887890 5.645298 1.038670
v -0.887890 5.645298 -0.961330
v -0.944795 5.457705 1.038670
v -0.944795 5.457705 -0.961330
v -0.964010 5.262614 1.038670
v -0.964010 5.262614 -0.961330
v -0.944795 5.067524 1.038670
v -0.944795 5.067524 -0.961330
v -0.887889 4.879931 1.038670
v -0.887889 4.879930 -0.961330
v -0.795479 4.707044 1.038670
v -0.795479 4.707044 -0.961330
v -0.671116 4.555508 1.038670
v -0.671116 4.555508 -0.961330
v -0.519579 4.431145 1.038670
v -0.519579 4.431145 -0.961330
v -0.346692 4.338735 1.038670
v -0.346692 4.338735 -0.961330
v -0.159099 4.281830 1.038670
v -0.159099 4.281830 -0.961330
v 0.035990 2.507368 2.793917
v 0.573512 2.560310 2.793917
v 0.573512 2.560309 -2.716578
v 0.035990 2.507368 -2.716578
v 1.090377 2.717099 2.793917
v 1.090377 2.717099 -2.716578
v 1.566723 2.971711 2.793917
v 1.566723 2.971711 -2.716578
v 1.984244 3.314362 2.793917
v 1.984244 3.314361 -2.716578
v 2.326895 3.731882 2.793917
v 2.326895 3.731882 -2.716578
v 2.581507 4.208228 2.793917
v 2.581507 4.208228 -2.716578
v 2.738296 4.725094 2.793917
v 2.738296 4.725093 -2.716578
v 2.791237 5.262616 2.793917
v 2.791237 5.262615 -2.716578
v 2.738296 5.800138 2.793917
v 2.738296 5.800138 -2.716578
v 2.581507 6.317003 2.793917
v 2.581507 6.317003 -2.716578
v 2.326895 6.793349 2.793917
v 2.326895 6.793349 -2.716578
v 1.984244 7.210870 2.793917
v 1.984244 7.210870 -2.716578
v 1.566723 7.553521 2.793917
v 1.566723 7.553520 -2.716578
v 1.090377 7.808133 2.793917
v 1.090377 7.808133 -2.716578
v 0.573511 7.964922 2.793917
v 0.573511 7.964922 -2.716578
v 0.035989 8.017864 2.793917
v 0.035989 8.017863 -2.716578
v -0.501533 7.964922 2.793917
v -0.501533 7.964921 -2.716578
v -1.018399 7.808132 2.793917
v -1.018399 7.808132 -2.716578
v -1.494745 7.553520 2.793917
v -1.494745 7.553519 -2.716578
v -1.912266 7.210869 2.793917
v -1.912266 7.210869 -2.716578
v -2.254916 6.793348 2.793917
v -2.254916 6.793347 -2.716578
v -2.509528 6.317001 2.793917
v -2.509528 6.317001 -2.716578
v -2.666317 5.800136 2.793917
v -2.666317 5.800136 -2.716578
v -2.719258 5.262613 2.793917
v -2.719258 5.262613 -2.716578
v -2.666316 4.725091 2.793917
v -2.666316 4.725091 -2.716578
v -2.509526 4.208225 2.793917
v -2.509526 4.208225 -2.716578
v -2.254913 3.731879 2.793917
v -2.254913 3.731879 -2.716578
v -1.912262 3.314359 2.793917
v -1.912262 3.314359 -2.716578
v -1.494741 2.971709 2.793917
v -1.494741 2.971709 -2.716578
v -1.018394 2.717098 2.793917
v -1.018394 2.717097 -2.716578
v -0.501528 2.560309 2.793917
v -0.501528 2.560308 -2.716578
vn -0.0980 0.9952 0.0000
vn -0.2903 0.9569 0.0000
vn -0.4714 0.8819 0.0000
vn -0.6344 0.7730 0.0000
vn -0.7730 0.6344 0.0000
vn -0.8819 0.4714 0.0000
vn -0.9569 0.2903 0.0000
vn -0.9952 0.0980 0.0000
vn -0.9952 -0.0980 0.0000
vn -0.9569 -0.2903 0.0000
vn -0.8819 -0.4714 0.0000
vn -0.7730 -0.6344 0.0000
vn -0.6344 -0.7730 0.0000
vn -0.4714 -0.8819 0.0000
vn -0.2903 -0.9569 0.0000
vn -0.0980 -0.9952 0.0000
vn 0.0980 -0.9952 0.0000
vn 0.2903 -0.9569 0.0000
vn 0.4714 -0.8819 0.0000
vn 0.6344 -0.7730 0.0000
vn 0.7730 -0.6344 0.0000
vn 0.8819 -0.4714 0.0000
vn 0.9569 -0.2903 0.0000
vn 0.9952 -0.0980 0.0000
vn 0.9952 0.0980 0.0000
vn 0.9569 0.2903 0.0000
vn 0.8819 0.4714 -0.0000
vn 0.7730 0.6344 -0.0000
vn 0.6344 0.7730 0.0000
vn 0.4714 0.8819 0.0000
vn -0.0000 0.0000 1.0000
vn 0.2903 0.9569 0.0000
vn 0.0980 0.9952 0.0000
vn -0.0000 -0.0000 -1.0000
vn -0.5479 -0.4497 0.7054
vn 0.2058 -0.6783 -0.7054
vn 0.6251 0.3341 -0.7054
vn 0.2058 -0.6783 0.7054
vn -0.4497 0.5479 -0.7054
vn 0.6251 0.3341 0.7054
vn -0.4497 -0.5479 -0.7054
vn -0.4497 0.5479 0.7054
vn 0.3341 -0.6251 -0.7054
vn -0.4497 -0.5479 0.7054
vn 0.5479 0.4497 -0.7054
vn 0.3341 -0.6251 0.7054
vn -0.5479 0.4497 -0.7054
vn 0.5479 0.4497 0.7054
vn -0.3341 -0.6251 -0.7054
vn -0.5479 0.4497 0.7054
vn 0.4497 -0.5479 -0.7054
vn -0.3341 -0.6251 0.7054
vn 0.4497 0.5479 -0.7054
vn 0.4497 -0.5479 0.7054
vn -0.6251 0.3341 -0.7054
vn 0.4497 0.5479 0.7054
vn -0.2058 -0.6783 -0.7054
vn -0.6251 0.3341 0.7054
vn 0.5479 -0.4497 -0.7054
vn -0.2058 -0.6783 0.7054
vn 0.3341 0.6251 -0.7054
vn 0.5479 -0.4497 0.7054
vn -0.6783 0.2058 -0.7054
vn 0.3341 0.6251 0.7054
vn -0.0695 -0.7054 -0.7054
vn -0.6783 0.2058 0.7054
vn 0.6251 -0.3341 -0.7054
vn -0.0695 -0.7054 0.7054
vn 0.2058 0.6783 -0.7054
vn 0.6251 -0.3341 0.7054
vn -0.7054 0.0695 -0.7054
vn 0.2058 0.6783 0.7054
vn -0.7054 0.0695 0.7054
vn 0.6783 -0.2058 -0.7054
vn 0.0695 0.7054 -0.7054
vn 0.6783 -0.2058 0.7054
vn -0.7054 -0.0695 -0.7054
vn 0.0695 0.7054 0.7054
vn -0.7054 -0.0695 0.7054
vn 0.7054 -0.0695 -0.7054
vn -0.0695 0.7054 -0.7054
vn 0.7054 -0.0695 0.7054
vn -0.6783 -0.2058 -0.7054
vn -0.0695 0.7054 0.7054
vn -0.6783 -0.2058 0.7054
vn 0.7054 0.0695 -0.7054
vn -0.2058 0.6783 -0.7054
vn 0.7054 0.0695 0.7054
vn 0.0695 -0.7054 -0.7054
vn -0.6251 -0.3341 -0.7054
vn -0.2058 0.6783 0.7054
vn 0.0695 -0.7054 0.7054
vn -0.6251 -0.3341 0.7054
vn 0.6783 0.2058 -0.7054
vn -0.3341 0.6251 -0.7054
vn 0.6783 0.2058 0.7054
vn -0.5479 -0.4497 -0.7054
vn -0.3341 0.6251 0.7054
s off
f 1//1 3//1 4//1 2//1
f 3//2 5//2 6//2 4//2
f 5//3 7//3 8//3 6//3
f 7//4 9//4 10//4 8//4
f 9//5 11//5 12//5 10//5
f 11//6 13//6 14//6 12//6
f 13//7 15//7 16//7 14//7
f 15//8 17//8 18//8 16//8
f 17//9 19//9 20//9 18//9
f 19//10 21//10 22//10 20//10
f 21//11 23//11 24//11 22//11
f 23//12 25//12 26//12 24//12
f 25//13 27//13 28//13 26//13
f 27//14 29//14 30//14 28//14
f 29//15 31//15 32//15 30//15
f 31//16 33//16 34//16 32//16
f 33//17 35//17 36//17 34//17
f 35//18 37//18 38//18 36//18
f 37//19 39//19 40//19 38//19
f 39//20 41//20 42//20 40//20
f 41//21 43//21 44//21 42//21
f 43//22 45//22 46//22 44//22
f 45//23 47//23 48//23 46//23
f 47//24 49//24 50//24 48//24
f 49//25 51//25 52//25 50//25
f 51//26 53//26 54//26 52//26
f 53//27 55//27 56//27 54//27
f 55//28 57//28 58//28 56//28
f 57//29 59//29 60//29 58//29
f 59//30 61//30 62//30 60//30
f 4//31 6//31 8//31 10//31 12//31 14//31 16//31 18//31 20//31 22//31 24//31 26//31 28//31 30//31 32//31 34//31 36//31 38//31 40//31 42//31 44//31 46//31 48//31 50//31 52//31 54//31 56//31 58//31 60//31 62//31 64//31 2//31
f 61//32 63//32 64//32 62//32
f 63//33 1//33 2//33 64//33
f 1//34 63//34 61//34 59//34 57//34 55//34 53//34 51//34 49//34 47//34 45//34 43//34 41//34 39//34 37//34 35//34 33//34 31//34 29//34 27//34 25//34 23//34 21//34 19//34 17//34 15//34 13//34 11//34 9//34 7//34 5//34 3//34
f 65//17 68//17 67//17 66//17
f 66//18 67//18 70//18 69//18
f 69//19 70//19 72//19 71//19
f 71//20 72//20 74//20 73//20
f 73//21 74//21 76//21 75//21
f 75//22 76//22 78//22 77//22
f 77//23 78//23 80//23 79//23
f 79//24 80//24 82//24 81//24
f 81//25 82//25 84//25 83//25
f 83//26 84//26 86//26 85//26
f 85//27 86//27 88//27 87//27
f 87//28 88//28 90//28 89//28
f 89//29 90//29 92//29 91//29
f 91//30 92//30 94//30 93//30
f 93//32 94//32 96//32 95//32
f 95//33 96//33 98//33 97//33
f 97//1 98//1 100//1 99//1
f 99//2 100//2 102//2 101//2
f 101//3 102//3 104//3 103//3
f 103//4 104//4 106//4 105//4
f 105//5 106//5 108//5 107//5
f 107//6 108//6 110//6 109//6
f 109//7 110//7 112//7 111//7
f 111//8 112//8 114//8 113//8
f 113//9 114//9 116//9 115//9
f 115//10 116//10 118//10 117//10
f 117//11 118//11 120//11 119//11
f 119//12 120//12 122//12 121//12
f 121//13 122//13 124//13 123//13
f 123//14 124//14 126//14 125//14
f 122//35 120//35 184//35 186//35
f 125//15 126//15 128//15 127//15
f 127//16 128//16 68//16 65//16
f 66//36 69//36 133//36 130//36
f 131//34 132//34 192//34 190//34 188//34 186//34 184//34 182//34 180//34 178//34 176//34 174//34 172//34 170//34 168//34 166//34 164//34 162//34 160//34 158//34 156//34 154//34 152//34 150//34 148//34 146//34 144//34 142//34 140//34 138//34 136//34 134//34
f 129//31 130//31 133//31 135//31 137//31 139//31 141//31 143//31 145//31 147//31 149//31 151//31 153//31 155//31 157//31 159//31 161//31 163//31 165//31 167//31 169//31 171//31 173//31 175//31 177//31 179//31 181//31 183//31 185//31 187//31 189//31 191//31
f 85//37 87//37 151//37 149//37
f 70//38 67//38 131//38 134//38
f 103//39 105//39 169//39 167//39
f 88//40 86//40 150//40 152//40
f 121//41 123//41 187//41 185//41
f 106//42 104//42 168//42 170//42
f 69//43 71//43 135//43 133//43
f 124//44 122//44 186//44 188//44
f 87//45 89//45 153//45 151//45
f 72//46 70//46 134//46 136//46
f 105//47 107//47 171//47 169//47
f 90//48 88//48 152//48 154//48
f 123//49 125//49 189//49 187//49
f 108//50 106//50 170//50 172//50
f 71//51 73//51 137//51 135//51
f 126//52 124//52 188//52 190//52
f 89//53 91//53 155//53 153//53
f 74//54 72//54 136//54 138//54
f 107//55 109//55 173//55 171//55
f 92//56 90//56 154//56 156//56
f 125//57 127//57 191//57 189//57
f 110//58 108//58 172//58 174//58
f 73//59 75//59 139//59 137//59
f 128//60 126//60 190//60 192//60
f 91//61 93//61 157//61 155//61
f 76//62 74//62 138//62 140//62
f 109//63 111//63 175//63 173//63
f 94//64 92//64 156//64 158//64
f 127//65 65//65 129//65 191//65
f 112//66 110//66 174//66 176//66
f 75//67 77//67 141//67 139//67
f 68//68 128//68 192//68 132//68
f 93//69 95//69 159//69 157//69
f 78//70 76//70 140//70 142//70
f 111//71 113//71 177//71 175//71
f 96//72 94//72 158//72 160//72
f 114//73 112//73 176//73 178//73
f 77//74 79//74 143//74 141//74
f 95//75 97//75 161//75 159//75
f 80//76 78//76 142//76 144//76
f 113//77 115//77 179//77 177//77
f 98//78 96//78 160//78 162//78
f 116//79 114//79 178//79 180//79
f 79//80 81//80 145//80 143//80
f 97//81 99//81 163//81 161//81
f 82//82 80//82 144//82 146//82
f 115//83 117//83 181//83 179//83
f 100//84 98//84 162//84 164//84
f 118//85 116//85 180//85 182//85
f 81//86 83//86 147//86 145//86
f 99//87 101//87 165//87 163//87
f 84//88 82//88 146//88 148//88
f 65//89 66//89 130//89 129//89
f 117//90 119//90 183//90 181//90
f 102//91 100//91 164//91 166//91
f 67//92 68//92 132//92 131//92
f 120//93 118//93 182//93 184//93
f 83//94 85//94 149//94 147//94
f 101//95 103//95 167//95 165//95
f 86//96 84//96 148//96 150//96
f 119//97 121//97 185//97 183//97
f 104//98 102//98 166//98 168//98
o pylon_rectangle
v 1.000000 -1.000000 -1.000000
v 1.000000 -1.000000 1.000000
v -1.000000 -1.000000 1.000000
v -1.000000 -1.000000 -1.000000
v 1.000000 1.000000 -0.999999
v 0.999999 1.000000 1.000001
v -1.000000 1.000000 1.000000
v -1.000000 1.000000 -1.000000
v 1.000000 -1.000000 -1.000000
v 1.000000 -1.000000 1.000000
v -1.000000 -1.000000 1.000000
v -1.000000 -1.000000 -1.000000
v 1.000000 1.000000 -0.999999
v 0.999999 1.000000 1.000001
v -1.000000 1.000000 1.000000
v -1.000000 1.000000 -1.000000
v 1.000000 -1.000000 -1.000000
v 1.000000 -1.000000 1.000000
v -1.000000 -1.000000 1.000000
v -1.000000 -1.000000 -1.000000
v 1.000000 4.627666 -0.999999
v 0.999999 4.627666 1.000001
v -1.000000 4.627666 1.000000
v -1.000000 4.627666 -1.000000
v 1.000000 0.674444 -1.000000
v 1.000000 1.799977 -1.000000
v 1.000000 2.925510 -1.000000
v 1.000000 4.051044 -1.000000
v 1.000000 0.674444 1.000000
v 1.000000 1.799977 1.000000
v 1.000000 2.925510 1.000000
v 0.999999 4.051044 1.000000
v -1.000000 0.674444 1.000000
v -1.000000 1.799977 1.000000
v -1.000000 2.925510 1.000000
v -1.000000 4.051044 1.000000
v -1.000000 0.674444 -1.000000
v -1.000000 1.799977 -1.000000
v -1.000000 2.925510 -1.000000
v -1.000000 4.051044 -1.000000
v 1.000000 2.925510 -1.000000
v 1.000000 4.051044 -1.000000
v 1.000000 2.925510 1.000000
v 0.999999 4.051044 1.000000
v -1.000000 2.925510 1.000000
v -1.000000 4.051044 1.000000
v -1.000000 2.925510 -1.000000
v -1.000000 4.051044 -1.000000
vn 0.0000 1.0000 0.0000
vn 0.0000 -1.0000 0.0000
vn -1.0000 -0.0000 -0.0000
vn 0.0000 0.0000 -1.0000
vn 1.0000 0.0000 0.0000
vn -0.0000 -0.0000 1.0000
s off
f 193//99 196//99 195//99 194//99
f 197//100 198//100 199//100 200//100
f 193//101 194//101 198//101 197//101
f 194//102 195//102 199//102 198//102
f 195//103 196//103 200//103 199//103
f 197//104 200//104 196//104 193//104
f 201//99 204//99 203//99 202//99
f 205//100 206//100 207//100 208//100
f 201//101 202//101 206//101 205//101
f 202//102 203//102 207//102 206//102
f 203//103 204//103 208//103 207//103
f 205//104 208//104 204//104 201//104
f 209//100 210//100 211//100 212//100
f 213//99 216//99 215//99 214//99
f 220//103 213//103 214//103 224//103
f 224//104 214//104 215//104 228//104
f 228//101 215//101 216//101 232//101
f 217//102 209//102 212//102 229//102
f 213//102 220//102 232//102 216//102
f 224//104 228//104 238//104 236//104
f 219//102 218//102 230//102 231//102
f 218//102 217//102 229//102 230//102
f 211//101 225//101 229//101 212//101
f 225//101 226//101 230//101 229//101
f 226//101 227//101 231//101 230//101
f 227//101 228//101 232//101 231//101
f 210//104 221//104 225//104 211//104
f 221//104 222//104 226//104 225//104
f 222//104 223//104 227//104 226//104
f 223//104 224//104 236//104 235//104
f 209//103 217//103 221//103 210//103
f 217//103 218//103 222//103 221//103
f 218//103 219//103 223//103 222//103
f 219//103 220//103 224//103 223//103
f 234//102 233//102 239//102 240//102
f 235//104 236//104 238//104 237//104
f 232//104 220//104 234//104 240//104
f 220//104 219//104 233//104 234//104
f 219//104 231//104 239//104 233//104
f 227//104 223//104 235//104 237//104
f 231//104 232//104 240//104 239//104
f 228//104 227//104 237//104 238//104
