# Blender v2.78 (sub 0) OBJ File: ''
# www.blender.org
o first_door_Cube.001
v -5.593255 0.320651 1.799858
v -5.593254 5.856883 1.799858
v -5.246110 0.320651 1.834342
v -5.246110 5.856883 1.834343
v -5.790957 0.320651 3.790062
v -5.790957 5.856883 3.790063
v -5.443813 0.320651 3.824547
v -5.443813 5.856883 3.824547
vn 0.0989 0.0000 -0.9951
vn 0.9951 -0.0000 0.0989
vn -0.0989 -0.0000 0.9951
vn -0.9951 0.0000 -0.0989
vn 0.0000 -1.0000 0.0000
vn 0.0000 1.0000 -0.0000
s off
f 1//1 2//1 4//1 3//1
f 3//2 4//2 8//2 7//2
f 7//3 8//3 6//3 5//3
f 5//4 6//4 2//4 1//4
f 3//5 7//5 5//5 1//5
f 8//6 4//6 2//6 6//6
o second_door_cube
v -0.775947 0.349184 -7.368577
v -0.775947 5.885416 -7.368577
v -0.775947 0.349184 -7.717431
v -0.775947 5.885416 -7.717431
v 1.224053 0.349184 -7.368577
v 1.224053 5.885416 -7.368577
v 1.224053 0.349184 -7.717431
v 1.224053 5.885416 -7.717431
vn -1.0000 0.0000 0.0000
vn 0.0000 0.0000 -1.0000
vn 1.0000 0.0000 0.0000
vn 0.0000 0.0000 1.0000
vn 0.0000 -1.0000 0.0000
vn 0.0000 1.0000 0.0000
s off
f 9//7 10//7 12//7 11//7
f 11//8 12//8 16//8 15//8
f 15//9 16//9 14//9 13//9
f 13//10 14//10 10//10 9//10
f 11//11 15//11 13//11 9//11
f 16//12 12//12 10//12 14//12
o ground_cube.001
v 7.165249 0.272243 -8.493436
v 7.165249 0.272243 8.493436
v -7.165250 0.272243 8.493434
v -7.165246 0.272243 -8.493439
v 7.165253 -0.272243 -8.493432
v 7.165245 -0.272243 8.493441
v -7.165252 -0.272243 8.493433
v -7.165248 -0.272243 -8.493436
vn 0.0000 -1.0000 0.0000
vn 0.0000 1.0000 0.0000
vn -1.0000 -0.0000 -0.0000
vn 0.0000 -0.0000 -1.0000
vn 1.0000 -0.0000 0.0000
vn -0.0000 0.0000 1.0000
s off
f 17//13 18//13 19//13 20//13
f 21//14 24//14 23//14 22//14
f 17//15 21//15 22//15 18//15
f 18//16 22//16 23//16 19//16
f 19//17 23//17 24//17 20//17
f 21//18 17//18 20//18 24//18
