# Blender v2.78 (sub 0) OBJ File: ''
# www.blender.org
mtllib world.mtl
o first_door_cube1
v -5.593255 0.320651 1.799858
v -5.593254 5.856883 1.799858
v -5.246110 0.320651 1.834342
v -5.246110 5.856883 1.834343
v -5.790957 0.320651 3.790062
v -5.790957 5.856883 3.790063
v -5.443813 0.320651 3.824547
v -5.443813 5.856883 3.824547
vn 0.0989 0.0000 -0.9951
vn 0.9951 -0.0000 0.0989
vn -0.0989 -0.0000 0.9951
vn -0.9951 0.0000 -0.0989
vn 0.0000 -1.0000 0.0000
vn 0.0000 1.0000 0.0000
usemtl None
s off
f 2//1 3//1 1//1
f 4//2 7//2 3//2
f 8//3 5//3 7//3
f 6//4 1//4 5//4
f 7//5 1//5 3//5
f 4//6 6//6 8//6
f 2//1 4//1 3//1
f 4//2 8//2 7//2
f 8//3 6//3 5//3
f 6//4 2//4 1//4
f 7//5 5//5 1//5
f 4//6 2//6 6//6
o second_door_cube2
v -0.775947 0.349184 -7.368577
v -0.775947 5.885416 -7.368577
v -0.775947 0.349184 -7.717431
v -0.775947 5.885416 -7.717431
v 1.224053 0.349184 -7.368577
v 1.224053 5.885416 -7.368577
v 1.224053 0.349184 -7.717431
v 1.224053 5.885416 -7.717431
vn -1.0000 0.0000 0.0000
vn 0.0000 0.0000 -1.0000
vn 1.0000 0.0000 0.0000
vn 0.0000 0.0000 1.0000
vn 0.0000 -1.0000 0.0000
vn 0.0000 1.0000 0.0000
usemtl None
s off
f 10//7 11//7 9//7
f 12//8 15//8 11//8
f 16//9 13//9 15//9
f 14//10 9//10 13//10
f 15//11 9//11 11//11
f 12//12 14//12 16//12
f 10//7 12//7 11//7
f 12//8 16//8 15//8
f 16//9 14//9 13//9
f 14//10 10//10 9//10
f 15//11 13//11 9//11
f 12//12 10//12 14//12
o ground_cube3
v 7.165249 0.272243 -8.493436
v 7.165249 0.272243 8.493436
v -7.165250 0.272243 8.493434
v -7.165246 0.272243 -8.493439
v 7.165253 -0.272243 -8.493432
v 7.165245 -0.272243 8.493441
v -7.165252 -0.272243 8.493433
v -7.165248 -0.272243 -8.493436
vn 0.0000 -1.0000 0.0000
vn 0.0000 1.0000 0.0000
vn -1.0000 -0.0000 0.0000
vn 0.0000 -0.0000 -1.0000
vn 1.0000 0.0000 0.0000
vn -0.0000 0.0000 1.0000
usemtl Material
s off
f 18//13 20//13 17//13
f 21//14 23//14 22//14
f 21//15 18//15 17//15
f 22//16 19//16 18//16
f 23//17 20//17 19//17
f 17//18 24//18 21//18
f 18//13 19//13 20//13
f 21//14 24//14 23//14
f 21//15 22//15 18//15
f 22//16 23//16 19//16
f 23//17 24//17 20//17
f 17//18 20//18 24//18
